<?xml version="1.0" standalone="no"?>
<!DOCTYPE svg PUBLIC "-//W3C//DTD SVG 20010904//EN"
 "http://www.w3.org/TR/2001/REC-SVG-20010904/DTD/svg10.dtd">
<svg version="1.0" xmlns="http://www.w3.org/2000/svg"
 width="373.000000pt" height="373.000000pt" viewBox="0 0 373.000000 373.000000"
 preserveAspectRatio="xMidYMid meet">
<metadata>
Created by potrace 1.11, written by Peter Selinger 2001-2013
</metadata>
<g transform="translate(0.000000,373.000000) scale(0.100000,-0.100000)"
fill="#000000" stroke="none">
<path d="M1650 3720 c-308 -41 -566 -135 -805 -293 -357 -236 -617 -572 -749
-967 -64 -193 -89 -340 -92 -555 -4 -285 29 -478 121 -718 223 -577 736 -1014
1345 -1145 141 -31 207 -37 395 -37 188 0 254 6 395 37 501 108 942 423 1202
858 129 216 206 428 249 685 21 127 18 491 -6 600 -3 11 -7 31 -9 45 -31 188
-151 479 -272 660 -253 378 -631 656 -1049 771 -81 22 -82 22 -205 45 -93 18
-425 26 -520 14z m277 -239 l41 -1 0 -245 c0 -244 0 -245 -21 -246 -32 -1
-130 -1 -144 0 -8 1 -11 65 -11 242 1 232 2 241 21 248 11 4 32 7 46 5 14 -1
45 -2 68 -3z m-490 -323 l0 -263 -55 -28 c-152 -76 -317 -219 -414 -357 -204
-289 -260 -676 -147 -1012 54 -161 145 -305 273 -434 94 -94 167 -148 277
-206 l64 -34 1 -257 c1 -203 -1 -257 -12 -257 -27 0 -193 65 -286 111 -83 42
-253 149 -268 168 -3 4 -15 14 -28 23 -38 26 -145 131 -210 206 -56 65 -162
214 -162 227 0 3 -11 23 -25 44 -48 77 -141 319 -159 416 -33 175 -38 217 -38
355 -1 192 26 353 88 531 164 471 527 836 1000 1004 111 39 101 63 101 -237z
m1073 190 c266 -117 498 -303 655 -523 89 -124 95 -134 144 -233 232 -464 233
-986 4 -1446 -42 -85 -112 -201 -146 -242 -9 -10 -30 -37 -47 -59 -129 -165
-330 -326 -535 -428 -88 -44 -224 -97 -248 -97 -9 0 -12 60 -12 246 l0 247 84
44 c178 94 326 229 435 398 36 56 96 177 96 194 0 8 -74 11 -249 11 l-248 0
-48 -54 c-26 -30 -52 -57 -59 -59 -8 -3 -11 130 -11 514 0 286 2 519 4 519 2
0 26 -23 52 -50 l48 -50 256 2 255 3 -38 75 c-60 119 -118 198 -216 295 -50
50 -100 97 -111 105 -32 25 -145 93 -200 120 l-50 25 0 256 0 255 55 -17 c30
-9 89 -32 130 -51z m-543 -1490 l1 -678 -76 0 c-43 0 -82 4 -88 8 -8 5 -12
189 -11 674 0 605 1 667 16 672 9 2 48 3 86 3 l70 -2 2 -677z m-530 2 c0 -275
-4 -500 -8 -500 -3 0 -24 21 -45 48 -21 26 -44 53 -51 60 -7 8 -31 50 -52 95
-107 221 -90 469 43 669 31 48 100 128 110 128 1 0 3 -225 3 -500z m520 -1129
c9 -1 12 -61 11 -241 -1 -237 -1 -240 -22 -241 -30 -1 -118 -1 -137 0 -15 1
-17 25 -17 234 0 127 4 237 8 242 7 8 54 10 157 6z"/>
</g>
</svg>
